<mxfile host="app.diagrams.net" modified="2023-07-26T05:35:41.381Z" agent="Mozilla/5.0 (Windows NT 10.0; Win64; x64) AppleWebKit/537.36 (KHTML, like Gecko) Chrome/115.0.0.0 Safari/537.36" etag="ozBWi08HuSDnFhX13ckV" version="21.5.1" type="github">
  <diagram name="Page-1" id="DNUC9zWv7i5fIQIDiEq1">
    <mxGraphModel dx="1290" dy="574" grid="1" gridSize="10" guides="1" tooltips="1" connect="1" arrows="1" fold="1" page="1" pageScale="1" pageWidth="850" pageHeight="1100" math="0" shadow="0">
      <root>
        <mxCell id="0" />
        <mxCell id="1" parent="0" />
        <mxCell id="OpvH1--ZX9xDzz7mLB65-1" value="Seminar with &lt;br&gt;dynamic schedule" style="rounded=0;whiteSpace=wrap;html=1;" vertex="1" parent="1">
          <mxGeometry x="80" y="40" width="160" height="80" as="geometry" />
        </mxCell>
        <mxCell id="OpvH1--ZX9xDzz7mLB65-2" value="Create event without start/end date" style="rounded=0;whiteSpace=wrap;html=1;" vertex="1" parent="1">
          <mxGeometry x="80" y="240" width="200" height="80" as="geometry" />
        </mxCell>
        <mxCell id="OpvH1--ZX9xDzz7mLB65-3" value="Customer registration&lt;br&gt;(OrderModel)" style="rounded=0;whiteSpace=wrap;html=1;" vertex="1" parent="1">
          <mxGeometry x="80" y="480" width="200" height="120" as="geometry" />
        </mxCell>
        <mxCell id="OpvH1--ZX9xDzz7mLB65-4" value="BG / Teacher" style="rounded=0;whiteSpace=wrap;html=1;" vertex="1" parent="1">
          <mxGeometry x="560" y="360" width="160" height="80" as="geometry" />
        </mxCell>
        <mxCell id="OpvH1--ZX9xDzz7mLB65-5" value="" style="endArrow=classic;html=1;rounded=0;exitX=0;exitY=1;exitDx=0;exitDy=0;entryX=1.01;entryY=0.67;entryDx=0;entryDy=0;entryPerimeter=0;" edge="1" parent="1" source="OpvH1--ZX9xDzz7mLB65-4" target="OpvH1--ZX9xDzz7mLB65-3">
          <mxGeometry width="50" height="50" relative="1" as="geometry">
            <mxPoint x="400" y="320" as="sourcePoint" />
            <mxPoint x="450" y="270" as="targetPoint" />
          </mxGeometry>
        </mxCell>
        <mxCell id="OpvH1--ZX9xDzz7mLB65-14" value="Discuss offline&amp;nbsp; with Customer &lt;br&gt;to determine the start/end date&amp;nbsp;" style="edgeLabel;html=1;align=center;verticalAlign=middle;resizable=0;points=[];" vertex="1" connectable="0" parent="OpvH1--ZX9xDzz7mLB65-5">
          <mxGeometry x="0.1805" relative="1" as="geometry">
            <mxPoint as="offset" />
          </mxGeometry>
        </mxCell>
        <mxCell id="OpvH1--ZX9xDzz7mLB65-6" value="" style="endArrow=classic;html=1;rounded=0;exitX=0;exitY=0;exitDx=0;exitDy=0;entryX=1;entryY=0.5;entryDx=0;entryDy=0;" edge="1" parent="1" source="OpvH1--ZX9xDzz7mLB65-4" target="OpvH1--ZX9xDzz7mLB65-2">
          <mxGeometry width="50" height="50" relative="1" as="geometry">
            <mxPoint x="400" y="320" as="sourcePoint" />
            <mxPoint x="450" y="270" as="targetPoint" />
          </mxGeometry>
        </mxCell>
        <mxCell id="OpvH1--ZX9xDzz7mLB65-15" value="Fill out the start/end date&lt;br&gt;Make the event happen&lt;br&gt;Confirm the attendant after event happened" style="edgeLabel;html=1;align=center;verticalAlign=middle;resizable=0;points=[];" vertex="1" connectable="0" parent="OpvH1--ZX9xDzz7mLB65-6">
          <mxGeometry x="0.4234" relative="1" as="geometry">
            <mxPoint x="39" y="7" as="offset" />
          </mxGeometry>
        </mxCell>
        <mxCell id="OpvH1--ZX9xDzz7mLB65-7" value="Create another event without start/end date" style="rounded=0;whiteSpace=wrap;html=1;" vertex="1" parent="1">
          <mxGeometry x="520" y="40" width="160" height="80" as="geometry" />
        </mxCell>
        <mxCell id="OpvH1--ZX9xDzz7mLB65-9" value="" style="endArrow=classic;html=1;rounded=0;exitX=0.5;exitY=0;exitDx=0;exitDy=0;entryX=0.75;entryY=1;entryDx=0;entryDy=0;" edge="1" parent="1" source="OpvH1--ZX9xDzz7mLB65-4" target="OpvH1--ZX9xDzz7mLB65-7">
          <mxGeometry width="50" height="50" relative="1" as="geometry">
            <mxPoint x="550" y="170" as="sourcePoint" />
            <mxPoint x="600" y="120" as="targetPoint" />
          </mxGeometry>
        </mxCell>
        <mxCell id="OpvH1--ZX9xDzz7mLB65-18" value="Create another event&lt;br&gt;without start/end time" style="edgeLabel;html=1;align=center;verticalAlign=middle;resizable=0;points=[];" vertex="1" connectable="0" parent="OpvH1--ZX9xDzz7mLB65-9">
          <mxGeometry x="0.21" y="1" relative="1" as="geometry">
            <mxPoint as="offset" />
          </mxGeometry>
        </mxCell>
        <mxCell id="OpvH1--ZX9xDzz7mLB65-10" value="" style="endArrow=classic;startArrow=classic;html=1;rounded=0;exitX=0.394;exitY=0.015;exitDx=0;exitDy=0;exitPerimeter=0;" edge="1" parent="1" source="OpvH1--ZX9xDzz7mLB65-2">
          <mxGeometry width="50" height="50" relative="1" as="geometry">
            <mxPoint x="110" y="170" as="sourcePoint" />
            <mxPoint x="160" y="120" as="targetPoint" />
          </mxGeometry>
        </mxCell>
        <mxCell id="OpvH1--ZX9xDzz7mLB65-12" value="" style="endArrow=classic;startArrow=classic;html=1;rounded=0;" edge="1" parent="1" source="OpvH1--ZX9xDzz7mLB65-1">
          <mxGeometry width="50" height="50" relative="1" as="geometry">
            <mxPoint x="470" y="130" as="sourcePoint" />
            <mxPoint x="520" y="80" as="targetPoint" />
          </mxGeometry>
        </mxCell>
        <mxCell id="OpvH1--ZX9xDzz7mLB65-13" value="" style="endArrow=classic;startArrow=classic;html=1;rounded=0;exitX=0.4;exitY=0;exitDx=0;exitDy=0;exitPerimeter=0;" edge="1" parent="1" source="OpvH1--ZX9xDzz7mLB65-3">
          <mxGeometry width="50" height="50" relative="1" as="geometry">
            <mxPoint x="110" y="370" as="sourcePoint" />
            <mxPoint x="160" y="320" as="targetPoint" />
          </mxGeometry>
        </mxCell>
      </root>
    </mxGraphModel>
  </diagram>
</mxfile>
